<svg xmlns="http://www.w3.org/2000/svg" width="1024" height="1024" viewBox="0 0 1024 1024" role="img" aria-label="카드티라노"><rect width="1024" height="1024" fill="#DCEEB1"/><g transform="translate(206,225) scale(23.9)"><path fill="#0f0d0b" d="M3 11.6 L11 9.8 C13.2 9.8 14.4 11 14.4 13.2 L14.4 18.4 Q14.4 19 13.8 19 L12.8 19 Q12.2 19 12.2 18.4 L12.2 14.6 L10.4 14.6 L10.4 18.4 Q10.4 19 9.8 19 L8.8 19 Q8.2 19 8.2 18.4 L8.2 13.7 C6.3 13.5 4.7 13 3 11.6 Z M13.5 12.4 l2 1.1 -2 .9 z"/><path fill="#0f0d0b" fill-rule="evenodd" d="M15.4 4.6 H19 A2 2 0 0 1 21 6.6 V9.2 A2 2 0 0 1 19 11.2 H15.4 A2 2 0 0 1 13.4 9.2 V6.6 A2 2 0 0 1 15.4 4.6 Z M17.6 6.5 a0.8 0.8 0 1 1 -1.6 0 a0.8 0.8 0 1 1 1.6 0 Z M18.2 7.8 H19.9 A0.5 0.5 0 0 1 20.4 8.3 V9.6 A0.5 0.5 0 0 1 19.9 10.1 H18.2 A0.5 0.5 0 0 1 17.7 9.6 V8.3 A0.5 0.5 0 0 1 18.2 7.8 Z M18.05 8.87 H20.05 V9.03 H18.05 Z M18.78 8.13 H18.94 V9.77 H18.94 Z"/></g></svg>