<svg xmlns="http://www.w3.org/2000/svg" viewBox="0 0 1200 300" role="img" aria-label="샘플 광고 배너">
  <defs>
    <linearGradient id="g" x1="0" y1="0" x2="1" y2="1">
      <stop offset="0" stop-color="#1b1c22"/>
      <stop offset="1" stop-color="#101117"/>
    </linearGradient>
    <linearGradient id="acc" x1="0" y1="0" x2="1" y2="0">
      <stop offset="0" stop-color="#ff6a2b"/>
      <stop offset="1" stop-color="#ffb02b"/>
    </linearGradient>
  </defs>
  <rect width="1200" height="300" rx="18" fill="url(#g)"/>
  <rect x="0" y="0" width="8" height="300" fill="url(#acc)"/>
  <g transform="translate(56,70)">
    <text x="0" y="0" fill="#9aa0a8" font-family="Pretendard,Apple SD Gothic Neo,sans-serif" font-size="22" font-weight="800" letter-spacing="2">SAMPLE · 광고 구좌</text>
    <text x="0" y="58" fill="#ffffff" font-family="Pretendard,Apple SD Gothic Neo,sans-serif" font-size="46" font-weight="900" letter-spacing="-1">이 자리에 브랜드를 노출하세요</text>
    <text x="0" y="104" fill="#cfd2d8" font-family="Pretendard,Apple SD Gothic Neo,sans-serif" font-size="24" font-weight="600">카드티라노 · 5개 플랫폼 카드 혜택 비교 트래픽</text>
    <g transform="translate(0,134)">
      <rect width="240" height="52" rx="12" fill="url(#acc)"/>
      <text x="120" y="34" text-anchor="middle" fill="#1a1206" font-family="Pretendard,Apple SD Gothic Neo,sans-serif" font-size="20" font-weight="900">제휴·광고 문의 ›</text>
    </g>
  </g>
  <g transform="translate(900,60)" opacity="0.95">
    <rect x="0" y="20" width="230" height="150" rx="16" fill="#2a2b33" transform="rotate(-8 115 95)"/>
    <rect x="20" y="0" width="230" height="150" rx="16" fill="#ff6a2b"/>
    <circle cx="222" cy="28" r="13" fill="#ffffff" opacity=".85"/>
    <rect x="40" y="110" width="120" height="12" rx="6" fill="#ffffff" opacity=".8"/>
    <rect x="40" y="130" width="80" height="9" rx="4" fill="#ffffff" opacity=".55"/>
  </g>
  <text x="1164" y="286" text-anchor="end" fill="#5a5c66" font-family="Pretendard,sans-serif" font-size="14" font-weight="700">partner@cardtyranno.com</text>
</svg>
